<svg width="158" height="32" viewBox="0 0 158 32" fill="none" xmlns="http://www.w3.org/2000/svg">
<g clip-path="url(#clip0_2382_3295)">
<path d="M30.8 23.3C31.2 25.1 31.5 26.9 31.6 28.8C30 29.5 28.4 30 26.7 30.5C23.3 31.4 19.7 31.9 16 31.9C12.2 31.9 8.5 31.4 5 30.4C5.3 28.5 5.7 26.7 6.2 24.9C9.4 25.7 12.7 26.1 16 26.1C19.3 26.1 22.4 25.7 25.5 25C27.3 24.5 29.1 24 30.8 23.3Z" fill="#00154F"/>
<path d="M20.6 4.29998C25.6 9.49998 29.2 16 30.8 23.3C29.1 24 27.3 24.5 25.5 25C23.7 18.7 20.4 13 16 8.39998C14.6 6.89998 13 5.49998 11.3 4.19998C12.7 2.69998 14.3 1.29998 16 0.0999756C17.6 1.39998 19.2 2.79998 20.6 4.29998Z" fill="#1065D8"/>
<path d="M11.3001 4.19995C13.0001 5.49995 14.5001 6.89995 16.0001 8.39995C14.3001 10.2 12.7001 12.1 11.3001 14.2C10.4001 15.6 9.5001 17 8.8001 18.5C7.8001 20.5 7.0001 22.6 6.3001 24.8C5.8001 26.6 5.4001 28.4 5.1001 30.3C3.4001 29.8 1.7001 29.2 0.100098 28.5C0.300098 26.6 0.600098 24.8 1.0001 23.1C1.7001 20.1 2.8001 17.2 4.1001 14.4L6.5001 10.1C7.9001 7.99995 9.5001 5.99995 11.3001 4.19995Z" fill="#102791"/>
<path d="M42.7002 24.2L51.7002 12.4L53.3002 10.3H48.1002H43.1002V8.29999H56.2002V9.99999L47.2002 21.8L45.6002 23.9H50.8002H56.2002V26H42.7002V24.2Z" fill="#00154F"/>
<path d="M76.8 8.29999V10.4H67V15.9H75.9V18H67V23.9H77.3V26H64.8V8.29999H76.8Z" fill="#00154F"/>
<path d="M87.3 17.1C87.3 20.8 88.4 24.1 92.6 24.1C96.9 24.1 97.9 20.8 97.9 17.1C97.9 13.4 96.8 10.1 92.6 10.1C88.4 10.1 87.3 13.3 87.3 17.1ZM85 17.1C85 11.6 87.3 8 92.7 8C98.1 8 100.4 11.6 100.4 17.1C100.4 22.6 98.1 26.2 92.7 26.2C87.3 26.2 85 22.6 85 17.1Z" fill="#00154F"/>
<path d="M113.6 25.9H111.3V10.4H106V8.29999H119.1V10.4H113.7V25.9H113.6Z" fill="#00154F"/>
<path d="M131 11L128.1 18.9H133.8L131 11ZM129.9 8.19995H132.1L138.9 26H136.5L134.6 20.9H127.4L125.5 26H123.1L129.9 8.19995Z" fill="#00154F"/>
<path d="M152.5 16.8C153.9 16.8 155.7 16.4 155.7 13.6C155.7 10.8 153.9 10.4 152.5 10.4H148V16.8H152.5ZM148 25.9H145.7V8.29999H152.2C155 8.29999 158 9.29999 158 13.6C158 17.8 155 18.9 152.2 18.9H148V25.9Z" fill="#00154F"/>
</g>
<defs>
<clipPath id="clip0_2382_3295">
<rect width="158" height="31.8" fill="white" transform="translate(0 0.0999756)"/>
</clipPath>
</defs>
</svg>
